<?xml version="1.0" standalone="no"?>
<!DOCTYPE svg PUBLIC "-//W3C//DTD SVG 20010904//EN"
 "http://www.w3.org/TR/2001/REC-SVG-20010904/DTD/svg10.dtd">
<svg version="1.0" xmlns="http://www.w3.org/2000/svg"
 width="1149.000000pt" height="1153.000000pt" viewBox="0 0 1149.000000 1153.000000"
 preserveAspectRatio="xMidYMid meet">
<metadata>
Created by potrace 1.14, written by Peter Selinger 2001-2017
</metadata>
<g transform="translate(0.000000,1153.000000) scale(0.100000,-0.100000)"
fill="#000000" stroke="none">
<path d="M5390 11524 c-19 -2 -91 -9 -160 -14 -945 -80 -1878 -410 -2686 -951
-302 -202 -549 -404 -828 -678 -464 -457 -809 -929 -1101 -1506 -375 -741
-585 -1563 -602 -2360 l-5 -250 2366 -2364 c2265 -2263 2366 -2366 2366 -2400
0 -20 7 -76 15 -126 41 -253 170 -479 363 -635 323 -261 742 -303 1097 -110
284 153 474 420 530 744 8 49 15 106 15 127 0 37 45 82 2365 2400 l2365 2362
0 176 c0 285 -42 681 -106 998 -148 738 -452 1458 -882 2088 -211 310 -392
527 -686 821 -237 236 -392 372 -621 544 -754 564 -1636 935 -2560 1075 -325
49 -432 57 -830 60 -209 2 -396 1 -415 -1z m730 -114 c703 -48 1370 -217 1993
-504 1571 -724 2741 -2155 3122 -3816 90 -390 145 -823 145 -1138 l0 -114
-2311 -2316 c-1270 -1275 -2314 -2318 -2318 -2320 -5 -2 -12 18 -15 43 -28
181 -181 445 -333 569 -32 27 -58 51 -58 55 0 4 549 553 1220 1220 671 667
1433 1426 1693 1686 l474 472 -31 50 c-50 81 -90 178 -112 268 -28 119 -27
300 1 410 25 92 74 203 120 270 l33 47 -1751 1751 -1751 1751 -38 -18 c-21 -9
-131 -67 -246 -128 l-207 -110 -218 115 c-119 64 -230 121 -245 128 l-28 13
-1751 -1751 -1751 -1751 30 -43 c44 -64 79 -137 109 -226 36 -106 45 -309 19
-434 -19 -97 -61 -203 -110 -280 -19 -30 -35 -57 -35 -60 0 -3 762 -764 1692
-1690 931 -926 1693 -1687 1693 -1690 0 -4 -26 -28 -58 -55 -82 -67 -179 -192
-236 -304 -50 -97 -101 -242 -101 -286 0 -13 -3 -24 -7 -24 -5 0 -1049 1044
-2320 2319 l-2313 2319 0 114 c0 403 86 964 216 1414 336 1165 1056 2203 2039
2937 866 647 1899 1031 2980 1106 173 12 596 12 765 1z m-584 -1955 l214 -114
117 63 c65 34 167 89 227 121 l108 58 1660 -1660 1660 -1660 -26 -52 c-45 -88
-85 -225 -98 -331 -20 -171 11 -368 84 -532 l32 -71 -1664 -1658 c-916 -912
-1669 -1658 -1673 -1659 -4 0 -23 7 -42 15 l-35 14 2 1467 3 1468 83 43 c144
75 240 152 330 266 319 407 226 959 -211 1256 -67 45 -177 95 -283 128 -83 25
-101 27 -274 27 -173 0 -191 -2 -274 -27 -218 -67 -374 -169 -498 -325 -111
-141 -174 -305 -184 -486 -10 -171 42 -360 141 -511 84 -129 256 -275 400
-341 l55 -25 0 -1474 0 -1473 -35 -12 -36 -12 -1517 1510 c-834 831 -1584
1578 -1666 1661 l-149 150 26 58 c123 278 126 560 7 834 l-40 94 1658 1658
c999 999 1662 1655 1670 1652 8 -3 110 -57 228 -120z m438 -2954 c170 -45 335
-150 437 -278 198 -249 220 -561 58 -836 -56 -97 -192 -229 -292 -286 -343
-194 -740 -143 -1018 129 -243 239 -303 562 -158 855 110 224 325 380 592 431
98 19 279 11 381 -15z m-301 -1740 c71 -8 171 -2 275 15 l42 7 -2 -1487 -3
-1487 -235 0 -235 0 -3 1487 -2 1487 42 -7 c24 -4 78 -11 121 -15z m-384
-3021 l32 -40 429 0 428 0 32 40 c17 22 37 40 44 40 21 0 135 -103 192 -175
65 -82 145 -241 171 -340 28 -109 26 -373 -5 -478 -116 -403 -500 -685 -902
-664 -444 24 -809 378 -849 824 -23 259 52 492 223 696 44 52 144 137 162 137
6 0 25 -18 43 -40z"/>
<path d="M5437 10682 l-307 -307 310 -310 310 -310 310 310 310 310 -307 307
c-170 170 -310 308 -313 308 -3 0 -143 -138 -313 -308z m546 -80 l227 -227
-230 -230 -230 -230 -230 230 -230 230 227 227 c125 126 230 228 233 228 3 0
108 -102 233 -228z"/>
<path d="M737 6103 l-307 -307 310 -311 310 -310 305 305 c168 168 305 309
305 315 0 10 -600 615 -610 615 -3 0 -143 -138 -313 -307z m540 -75 c123 -123
223 -227 223 -233 0 -6 -101 -111 -225 -235 l-225 -225 -230 230 -230 230 227
227 c125 126 230 228 233 228 3 0 105 -100 227 -222z"/>
<path d="M10142 6107 c-166 -166 -302 -307 -302 -312 0 -6 137 -147 305 -315
l305 -305 310 310 310 310 -307 307 c-170 170 -310 308 -313 308 -3 0 -141
-136 -308 -303z m541 -85 l227 -227 -230 -230 -230 -230 -225 225 c-124 124
-225 229 -225 235 0 10 440 455 450 455 3 0 108 -102 233 -228z"/>
<path d="M5140 5755 l0 -165 608 2 607 3 3 163 2 162 -610 0 -610 0 0 -165z"/>
<path d="M5277 1573 c-4 -3 -7 -111 -7 -239 l0 -232 236 -229 c129 -125 239
-228 244 -228 4 0 114 103 244 229 l236 228 -2 237 -3 236 -471 3 c-259 1
-474 -1 -477 -5z"/>
</g>
</svg>
